<svg width="400" height="400" viewBox="0 0 400 400" xmlns="http://www.w3.org/2000/svg">
  <defs>
    <radialGradient id="doughGradient" cx="50%" cy="50%" r="50%">
      <stop offset="60%" stop-color="#D28B47" />
      <stop offset="90%" stop-color="#A6682F" />
      <stop offset="100%" stop-color="#804D1E" />
    </radialGradient>
    
    <radialGradient id="glazeGradient" cx="45%" cy="45%" r="60%">
      <stop offset="0%" stop-color="#FFB7D5" />
      <stop offset="70%" stop-color="#FF85B2" />
      <stop offset="100%" stop-color="#E05C8E" />
    </radialGradient>
    
    <linearGradient id="shine" x1="0%" y1="0%" x2="100%" y2="100%">
      <stop offset="0%" stop-color="white" stop-opacity="0.4" />
      <stop offset="50%" stop-color="white" stop-opacity="0" />
    </linearGradient>
  </defs>

  <path d="M200,60 C120,60 60,120 60,200 C60,280 120,340 200,340 C280,340 340,280 340,200 C340,120 280,60 200,60 Z M200,150 C225,150 250,175 250,200 C250,225 225,250 200,250 C175,250 150,225 150,200 C150,175 175,150 200,150 Z" fill="url(#doughGradient)" />

  <path d="M200,75 C130,75 75,130 75,200 C75,210 80,220 85,230 C80,240 75,255 85,270 C100,290 130,280 150,300 C170,320 180,325 200,325 C230,325 260,310 285,300 C310,290 325,260 325,200 C325,130 270,75 200,75 Z M200,165 C218,165 235,182 235,200 C235,218 218,235 200,235 C182,235 165,218 165,200 C165,182 182,165 200,165 Z" fill="url(#glazeGradient)" />

  <path d="M120,120 Q150,90 200,95" stroke="white" stroke-width="8" stroke-linecap="round" fill="none" opacity="0.3" />
  <ellipse cx="280" cy="150" rx="15" ry="8" fill="white" opacity="0.2" transform="rotate(-30 280 150)" />

  <rect x="130" y="140" width="6" height="15" rx="3" fill="#4FC3F7" transform="rotate(45 130 140)" />
  <rect x="250" y="110" width="6" height="15" rx="3" fill="#FFF176" transform="rotate(-20 250 110)" />
  <rect x="290" y="210" width="6" height="15" rx="3" fill="#81C784" transform="rotate(80 290 210)" />
  <rect x="180" y="280" width="6" height="15" rx="3" fill="#FFFFFF" transform="rotate(10 180 280)" />
  <rect x="110" y="240" width="6" height="15" rx="3" fill="#BA68C8" transform="rotate(-45 110 240)" />
  <rect x="220" y="100" width="15" height="6" rx="3" fill="#FFB74D" />
  <rect x="270" y="260" width="6" height="15" rx="3" fill="#E57373" transform="rotate(30 270 260)" />

  <circle cx="200" cy="200" r="45" fill="black" opacity="0.2" />
</svg>